<?xml version="1.0" encoding="UTF-8" standalone="no"?>
<!-- Created with Inkscape (http://www.inkscape.org/) -->

<svg
   xmlns:dc="http://purl.org/dc/elements/1.1/"
   xmlns:cc="http://creativecommons.org/ns#"
   xmlns:rdf="http://www.w3.org/1999/02/22-rdf-syntax-ns#"
   xmlns:svg="http://www.w3.org/2000/svg"
   xmlns="http://www.w3.org/2000/svg"
   xmlns:sodipodi="http://sodipodi.sourceforge.net/DTD/sodipodi-0.dtd"
   xmlns:inkscape="http://www.inkscape.org/namespaces/inkscape"
   width="79.999954"
   height="10"
   id="svg2"
   version="1.1"
   inkscape:version="0.48.3.1 r9886"
   sodipodi:docname="New document 1">
  <defs
     id="defs4" />
  <sodipodi:namedview
     id="base"
     pagecolor="#ffffff"
     bordercolor="#666666"
     borderopacity="1.0"
     inkscape:pageopacity="0.0"
     inkscape:pageshadow="2"
     inkscape:zoom="7.9195959"
     inkscape:cx="33.459735"
     inkscape:cy="6.3479328"
     inkscape:document-units="px"
     inkscape:current-layer="text2995"
     showgrid="false"
     showguides="true"
     inkscape:guide-bbox="true"
     inkscape:snap-global="false"
     fit-margin-top="0"
     fit-margin-left="0"
     fit-margin-right="0"
     fit-margin-bottom="0"
     inkscape:window-width="1855"
     inkscape:window-height="1056"
     inkscape:window-x="65"
     inkscape:window-y="24"
     inkscape:window-maximized="1">
    <inkscape:grid
       type="xygrid"
       id="grid3035"
       empspacing="5"
       visible="true"
       enabled="true"
       snapvisiblegridlinesonly="true"
       originx="-4e-05px"
       originy="-706.66893px" />
  </sodipodi:namedview>
  <metadata
     id="metadata7">
    <rdf:RDF>
      <cc:Work
         rdf:about="">
        <dc:format>image/svg+xml</dc:format>
        <dc:type
           rdf:resource="http://purl.org/dc/dcmitype/StillImage" />
        <dc:title></dc:title>
      </cc:Work>
    </rdf:RDF>
  </metadata>
  <g
     inkscape:label="Layer 1"
     inkscape:groupmode="layer"
     id="layer1"
     transform="translate(-4e-5,-335.69325)">
    <text
       xml:space="preserve"
       style="font-size:40px;font-style:normal;font-variant:normal;font-weight:normal;font-stretch:normal;line-height:125%;letter-spacing:0px;word-spacing:0px;fill:#000000;fill-opacity:1;stroke:none;font-family:FontAwesome;-inkscape-font-specification:FontAwesome"
       x="344.46201"
       y="300.80869"
       id="text2991"
       sodipodi:linespacing="125%"><tspan
         sodipodi:role="line"
         id="tspan2993"
         x="344.46201"
         y="300.80869" /></text>
    <g
       id="g3003"
       transform="translate(-98.994949,-246.47722)">
      <g
         style="font-size:140.01113892px;font-style:normal;font-variant:normal;font-weight:normal;font-stretch:normal;line-height:125%;letter-spacing:0px;word-spacing:0px;fill:#000000;fill-opacity:1;stroke:none;font-family:FontAwesome;-inkscape-font-specification:FontAwesome"
         id="text2995">
        <path
           d="m 108.99498,582.74738 0,6.73077 c -1e-5,0.20032 -0.0738,0.37861 -0.22135,0.53486 -0.14758,0.15625 -0.33421,0.27844 -0.5599,0.36658 -0.22569,0.0841 -0.4514,0.14824 -0.67707,0.19231 -0.22137,0.0401 -0.4297,0.0601 -0.625,0.0601 -0.19533,0 -0.40583,-0.02 -0.63151,-0.0601 -0.22136,-0.0441 -0.44489,-0.10817 -0.67058,-0.19231 -0.2257,-0.0881 -0.41233,-0.21033 -0.55989,-0.36658 -0.14758,-0.15625 -0.22136,-0.33454 -0.22136,-0.53486 0,-0.20032 0.0738,-0.3786 0.22136,-0.53485 0.14756,-0.15625 0.33419,-0.27644 0.55989,-0.36058 0.22569,-0.0881 0.44922,-0.15224 0.67058,-0.19231 0.22568,-0.0441 0.43619,-0.0661 0.63151,-0.0661 0.45572,0 0.87238,0.0781 1.25,0.23437 l 0,-3.22716 -5,1.42428 0,4.26081 c -1e-5,0.20032 -0.0738,0.37861 -0.22136,0.53486 -0.14757,0.15625 -0.33421,0.27644 -0.55989,0.36058 -0.2257,0.0881 -0.4514,0.15224 -0.67709,0.1923 -0.22135,0.0441 -0.42969,0.0661 -0.625,0.0661 -0.19531,0 -0.40581,-0.022 -0.63151,-0.0661 -0.22135,-0.0401 -0.44488,-0.10416 -0.670571,-0.1923 -0.2257,-0.0841 -0.41233,-0.20433 -0.5599,-0.36058 -0.14757,-0.15625 -0.22135,-0.33454 -0.22135,-0.53486 0,-0.20032 0.0738,-0.3786 0.22135,-0.53485 0.14757,-0.15625 0.3342,-0.27644 0.5599,-0.36058 0.225691,-0.0881 0.449221,-0.15224 0.670571,-0.19231 0.2257,-0.0441 0.4362,-0.0661 0.63151,-0.0661 0.45573,0 0.8724,0.0781 1.25,0.23437 l 0,-5.8113 c 0,-0.12419 0.0412,-0.23637 0.1237,-0.33653 0.0825,-0.10416 0.1888,-0.17628 0.31901,-0.21635 l 5.41667,-1.53846 c 0.0521,-0.016 0.11284,-0.024 0.18229,-0.024 0.1736,1e-5 0.32117,0.0561 0.44271,0.16827 0.12152,0.11219 0.18228,0.2484 0.18229,0.40865"
           id="path3019"
           inkscape:connector-curvature="0" />
        <path
           d="m 170.99494,591.01662 0,-0.76923 c 0,-0.10416 -0.033,-0.19431 -0.099,-0.27043 -0.066,-0.0761 -0.1441,-0.11418 -0.23438,-0.11418 l -0.66667,0 c -0.0903,0 -0.1684,0.0381 -0.23438,0.11418 -0.066,0.0761 -0.099,0.16627 -0.099,0.27043 l 0,0.76923 c 0,0.10417 0.033,0.19431 0.099,0.27044 0.066,0.0761 0.14411,0.11418 0.23438,0.11418 l 0.66667,0 c 0.0903,0 0.1684,-0.0381 0.23438,-0.11418 0.066,-0.0761 0.099,-0.16627 0.099,-0.27044 m 0,-2.30769 0,-0.76923 c 0,-0.10416 -0.033,-0.19431 -0.099,-0.27043 -0.066,-0.0761 -0.1441,-0.11418 -0.23438,-0.11418 l -0.66667,0 c -0.0903,0 -0.1684,0.0381 -0.23438,0.11418 -0.066,0.0761 -0.099,0.16627 -0.099,0.27043 l 0,0.76923 c 0,0.10417 0.033,0.19431 0.099,0.27043 0.066,0.0761 0.14411,0.11419 0.23438,0.11419 l 0.66667,0 c 0.0903,0 0.1684,-0.0381 0.23438,-0.11419 0.066,-0.0761 0.099,-0.16626 0.099,-0.27043 m 0,-2.30769 0,-0.76923 c 0,-0.10416 -0.033,-0.19431 -0.099,-0.27043 -0.066,-0.0761 -0.1441,-0.11418 -0.23438,-0.11419 l -0.66667,0 c -0.0903,10e-6 -0.1684,0.0381 -0.23438,0.11419 -0.066,0.0761 -0.099,0.16627 -0.099,0.27043 l 0,0.76923 c 0,0.10417 0.033,0.19431 0.099,0.27043 0.066,0.0761 0.14411,0.11419 0.23438,0.11418 l 0.66667,0 c 0.0903,10e-6 0.1684,-0.038 0.23438,-0.11418 0.066,-0.0761 0.099,-0.16626 0.099,-0.27043 m 5.33333,4.61538 0,-3.07692 c 0,-0.10416 -0.033,-0.19431 -0.099,-0.27043 -0.066,-0.0761 -0.1441,-0.11418 -0.23437,-0.11418 l -4,0 c -0.0903,0 -0.16841,0.0381 -0.23438,0.11418 -0.066,0.0761 -0.099,0.16627 -0.099,0.27043 l 0,3.07692 c -1e-5,0.10417 0.033,0.19431 0.099,0.27044 0.066,0.0761 0.14411,0.11418 0.23438,0.11418 l 4,0 c 0.0903,0 0.1684,-0.0381 0.23437,-0.11418 0.066,-0.0761 0.099,-0.16627 0.099,-0.27044 m -5.33333,-6.92307 0,-0.76923 c 0,-0.10416 -0.033,-0.19431 -0.099,-0.27044 -0.066,-0.0761 -0.1441,-0.11417 -0.23438,-0.11418 l -0.66667,0 c -0.0903,10e-6 -0.1684,0.0381 -0.23438,0.11418 -0.066,0.0761 -0.099,0.16628 -0.099,0.27044 l 0,0.76923 c 0,0.10417 0.033,0.19431 0.099,0.27043 0.066,0.0761 0.14411,0.11419 0.23438,0.11418 l 0.66667,0 c 0.0903,10e-6 0.1684,-0.038 0.23438,-0.11418 0.066,-0.0761 0.099,-0.16626 0.099,-0.27043 m 7.33333,6.92307 0,-0.76923 c -1e-5,-0.10416 -0.033,-0.19431 -0.099,-0.27043 -0.066,-0.0761 -0.1441,-0.11418 -0.23437,-0.11418 l -0.66667,0 c -0.0903,0 -0.16841,0.0381 -0.23437,0.11418 -0.066,0.0761 -0.099,0.16627 -0.099,0.27043 l 0,0.76923 c -10e-6,0.10417 0.033,0.19431 0.099,0.27044 0.066,0.0761 0.14409,0.11418 0.23437,0.11418 l 0.66667,0 c 0.0903,0 0.16839,-0.0381 0.23437,-0.11418 0.066,-0.0761 0.099,-0.16627 0.099,-0.27044 m -2,-4.61538 0,-3.07692 c 0,-0.10416 -0.033,-0.19431 -0.099,-0.27044 -0.066,-0.0761 -0.1441,-0.11417 -0.23437,-0.11418 l -4,0 c -0.0903,10e-6 -0.16841,0.0381 -0.23438,0.11418 -0.066,0.0761 -0.099,0.16628 -0.099,0.27044 l 0,3.07692 c -1e-5,0.10417 0.033,0.19431 0.099,0.27043 0.066,0.0761 0.14411,0.11419 0.23438,0.11418 l 4,0 c 0.0903,10e-6 0.1684,-0.038 0.23437,-0.11418 0.066,-0.0761 0.099,-0.16626 0.099,-0.27043 m 2,2.30769 0,-0.76923 c -1e-5,-0.10416 -0.033,-0.19431 -0.099,-0.27043 -0.066,-0.0761 -0.1441,-0.11418 -0.23437,-0.11418 l -0.66667,0 c -0.0903,0 -0.16841,0.0381 -0.23437,0.11418 -0.066,0.0761 -0.099,0.16627 -0.099,0.27043 l 0,0.76923 c -10e-6,0.10417 0.033,0.19431 0.099,0.27043 0.066,0.0761 0.14409,0.11419 0.23437,0.11419 l 0.66667,0 c 0.0903,0 0.16839,-0.0381 0.23437,-0.11419 0.066,-0.0761 0.099,-0.16626 0.099,-0.27043 m 0,-2.30769 0,-0.76923 c -1e-5,-0.10416 -0.033,-0.19431 -0.099,-0.27043 -0.066,-0.0761 -0.1441,-0.11418 -0.23437,-0.11419 l -0.66667,0 c -0.0903,10e-6 -0.16841,0.0381 -0.23437,0.11419 -0.066,0.0761 -0.099,0.16627 -0.099,0.27043 l 0,0.76923 c -10e-6,0.10417 0.033,0.19431 0.099,0.27043 0.066,0.0761 0.14409,0.11419 0.23437,0.11418 l 0.66667,0 c 0.0903,10e-6 0.16839,-0.038 0.23437,-0.11418 0.066,-0.0761 0.099,-0.16626 0.099,-0.27043 m 0,-2.30769 0,-0.76923 c -1e-5,-0.10416 -0.033,-0.19431 -0.099,-0.27044 -0.066,-0.0761 -0.1441,-0.11417 -0.23437,-0.11418 l -0.66667,0 c -0.0903,10e-6 -0.16841,0.0381 -0.23437,0.11418 -0.066,0.0761 -0.099,0.16628 -0.099,0.27044 l 0,0.76923 c -10e-6,0.10417 0.033,0.19431 0.099,0.27043 0.066,0.0761 0.14409,0.11419 0.23437,0.11418 l 0.66667,0 c 0.0903,10e-6 0.16839,-0.038 0.23437,-0.11418 0.066,-0.0761 0.099,-0.16626 0.099,-0.27043 m 0.66667,-0.96154 0,8.07692 c -1e-5,0.26442 -0.0816,0.49079 -0.24478,0.67909 -0.16321,0.1883 -0.35939,0.28245 -0.58854,0.28245 l -8.33334,0 c -0.22916,0 -0.42534,-0.0942 -0.58854,-0.28245 -0.16319,-0.1883 -0.24479,-0.41467 -0.24479,-0.67909 l 0,-8.07692 c 0,-0.26442 0.0816,-0.49078 0.24479,-0.67909 0.1632,-0.18829 0.35938,-0.28244 0.58854,-0.28245 l 8.33334,0 c 0.22915,10e-6 0.42533,0.0942 0.58854,0.28245 0.16318,0.18831 0.24477,0.41467 0.24478,0.67909"
           id="path3021"
           inkscape:connector-curvature="0" />
        <path
           d="m 158.32533,584.24726 c 0.4464,0.63788 0.6696,1.33434 0.66961,2.08938 -1e-5,0.75504 -0.22321,1.45367 -0.66961,2.09588 -0.44642,0.63788 -1.0528,1.14341 -1.81913,1.51659 -0.76635,0.36884 -1.60335,0.55326 -2.51105,0.55326 -0.26041,0 -0.53012,-0.0174 -0.80911,-0.0521 -0.73659,0.75938 -1.59221,1.28444 -2.56687,1.57518 -0.18228,0.0608 -0.39432,0.10847 -0.63613,0.1432 -0.0632,0.008 -0.12091,-0.0105 -0.17299,-0.0586 -0.0484,-0.0477 -0.08,-0.11069 -0.0949,-0.18876 l 0,-0.007 c -0.0112,-0.0174 -0.013,-0.0434 -0.006,-0.0782 0.0112,-0.0347 0.0149,-0.0564 0.0112,-0.0651 0,-0.008 0.009,-0.0303 0.0279,-0.0651 0.0186,-0.0303 0.0298,-0.0499 0.0335,-0.0585 0.004,-0.005 0.0167,-0.0217 0.0391,-0.052 0.0223,-0.0303 0.0372,-0.0499 0.0446,-0.0585 0.026,-0.0348 0.0837,-0.1107 0.17299,-0.22782 0.0893,-0.11279 0.15252,-0.19526 0.18972,-0.24733 0.0409,-0.0477 0.0986,-0.13235 0.17298,-0.25385 0.0781,-0.1215 0.1395,-0.23216 0.18414,-0.33196 0.0446,-0.0998 0.0949,-0.22782 0.15066,-0.38402 0.0558,-0.15622 0.10417,-0.32111 0.14509,-0.49469 -0.58406,-0.38619 -1.04534,-0.86352 -1.38387,-1.43197 -0.33481,-0.56845 -0.50221,-1.17811 -0.50221,-1.82902 0,-0.5641 0.13207,-1.10218 0.39619,-1.61422 0.26412,-0.51637 0.61938,-0.96115 1.0658,-1.33433 0.44641,-0.37318 0.97838,-0.66825 1.59592,-0.88522 0.61753,-0.2213 1.26482,-0.33195 1.94188,-0.33196 0.9077,1e-5 1.74472,0.1866 2.51106,0.55977 0.76632,0.36885 1.3727,0.87437 1.81912,1.51658"
           id="path3023"
           inkscape:connector-curvature="0" />
        <path
           d="m 166.12146,583.45924 c -0.65849,-0.30381 -1.3672,-0.45572 -2.12612,-0.45573 -0.75893,10e-6 -1.4695,0.15192 -2.1317,0.45573 -0.65848,0.29949 -1.18304,0.7053 -1.57366,1.21745 -0.3869,0.51216 -0.58036,1.06554 -0.58036,1.66016 0,0.48611 0.13207,0.95052 0.39621,1.39322 0.26786,0.43837 0.6436,0.81815 1.12723,1.13933 l 0.48549,0.32552 -0.15067,0.625 c -0.0893,0.39497 -0.21949,0.76823 -0.39062,1.11979 0.56547,-0.27344 1.077,-0.64453 1.5346,-1.11328 l 0.23995,-0.2474 0.31808,0.0391 c 0.25669,0.0347 0.49851,0.0521 0.72545,0.0521 0.75892,0 1.46763,-0.14974 2.12612,-0.44922 0.66219,-0.30382 1.18674,-0.7118 1.57366,-1.22396 0.39061,-0.51215 0.58593,-1.06553 0.58593,-1.66015 0,-0.59462 -0.19532,-1.148 -0.58593,-1.66016 -0.38692,-0.51215 -0.91147,-0.91796 -1.57366,-1.21745 m 2.20424,0.78776 c 0.44642,0.63803 0.66963,1.33464 0.66964,2.08985 -1e-5,0.75521 -0.22322,1.45399 -0.66964,2.09635 -0.44644,0.63802 -1.05284,1.14366 -1.8192,1.51693 -0.76638,0.36892 -1.60343,0.55338 -2.51116,0.55338 -0.26042,0 -0.53014,-0.0174 -0.80915,-0.0521 -0.73661,0.75955 -1.59227,1.28472 -2.56697,1.57552 -0.18229,0.0608 -0.39434,0.10851 -0.63616,0.14323 l -0.0279,0 c -0.0558,0 -0.10603,-0.0239 -0.15067,-0.0716 -0.0446,-0.0434 -0.0744,-0.102 -0.0893,-0.17579 l 0,-0.006 c -0.0112,-0.0174 -0.013,-0.0434 -0.006,-0.0781 0.0112,-0.0347 0.0149,-0.0564 0.0112,-0.0651 0,-0.009 0.009,-0.0304 0.0279,-0.0651 0.0186,-0.0304 0.0298,-0.0499 0.0335,-0.0586 0.004,-0.004 0.0167,-0.0217 0.0391,-0.0521 0.0223,-0.0304 0.0372,-0.0499 0.0446,-0.0586 0.026,-0.0347 0.0837,-0.11068 0.17299,-0.22786 0.0893,-0.11285 0.15253,-0.19532 0.18973,-0.2474 0.0409,-0.0477 0.0986,-0.13238 0.17299,-0.2539 0.0781,-0.12153 0.13951,-0.23221 0.18415,-0.33204 0.0446,-0.0998 0.0949,-0.22786 0.15067,-0.38411 0.0558,-0.15625 0.10417,-0.32118 0.14509,-0.49479 -0.58408,-0.38629 -1.04539,-0.86371 -1.38393,-1.43229 -0.33482,-0.56858 -0.50223,-1.17839 -0.50223,-1.82943 0,-0.75521 0.22321,-1.45182 0.66964,-2.08984 0.44643,-0.64235 1.05283,-1.148 1.8192,-1.51693 0.76637,-0.37325 1.60342,-0.55989 2.51116,-0.55989 0.90773,0 1.74479,0.18664 2.51116,0.55989 0.76636,0.36893 1.37276,0.87457 1.8192,1.51693"
           id="path3025"
           inkscape:connector-curvature="0" />
        <path
           d="m 146.85209,588.21214 0,2.08333 c 0,0.51649 -0.15811,0.95921 -0.47433,1.32813 -0.3125,0.36459 -0.69011,0.54687 -1.13281,0.54687 l -4.64287,0 c -0.44271,0 -0.82217,-0.18228 -1.13838,-0.54687 -0.3125,-0.36892 -0.46875,-0.81164 -0.46875,-1.32813 l 0,-5.41666 c 0,-0.51648 0.15625,-0.95703 0.46875,-1.32161 0.31621,-0.36892 0.69568,-0.55338 1.13838,-0.55339 l 3.92857,0 c 0.0521,10e-6 0.0949,0.0195 0.12836,0.0586 0.0335,0.0391 0.0502,0.089 0.0502,0.14974 l 0,0.41666 c -2e-5,0.0608 -0.0168,0.11069 -0.0502,0.14974 -0.0335,0.0391 -0.0763,0.0586 -0.12836,0.0586 l -3.92857,0 c -0.24553,0 -0.45572,0.102 -0.63058,0.30599 -0.17485,0.204 -0.26227,0.44922 -0.26227,0.73567 l 0,5.41667 c 0,0.28646 0.0874,0.53169 0.26227,0.73568 0.17485,0.20399 0.38505,0.30599 0.63058,0.30599 l 4.64287,0 c 0.24553,0 0.45572,-0.102 0.63058,-0.30599 0.17485,-0.20399 0.26227,-0.44922 0.26228,-0.73568 l 0,-2.08333 c -1e-5,-0.0608 0.0167,-0.11068 0.0502,-0.14974 0.0335,-0.0391 0.0763,-0.0586 0.12835,-0.0586 l 0.35714,0 c 0.0521,10e-6 0.0949,0.0195 0.12835,0.0586 0.0335,0.0391 0.0502,0.089 0.0502,0.14974 m 2.14286,-5.625 0,3.33333 c -1e-5,0.11285 -0.0353,0.21051 -0.10603,0.29297 -0.0707,0.0825 -0.1544,0.1237 -0.25111,0.1237 -0.0967,0 -0.18044,-0.0412 -0.25112,-0.1237 l -0.98214,-1.14583 -3.63839,4.24479 c -0.0372,0.0434 -0.08,0.0651 -0.12835,0.0651 -0.0484,0 -0.0912,-0.0217 -0.12835,-0.0651 l -0.63616,-0.74219 c -0.0372,-0.0434 -0.0558,-0.0933 -0.0558,-0.14974 -1e-5,-0.0564 0.0186,-0.10633 0.0558,-0.14974 l 3.63839,-4.24479 -0.98214,-1.14583 c -0.0707,-0.0825 -0.10604,-0.18012 -0.10603,-0.29297 -1e-5,-0.11284 0.0353,-0.2105 0.10603,-0.29297 0.0707,-0.0825 0.15438,-0.12369 0.25111,-0.1237 l 2.85715,0 c 0.0967,10e-6 0.18042,0.0412 0.25111,0.1237 0.0707,0.0825 0.10602,0.18013 0.10603,0.29297"
           id="path3027"
           inkscape:connector-curvature="0" />
        <path
           d="m 135.10606,588.53411 c -1e-5,-0.25095 -0.10996,-0.46401 -0.32986,-0.63921 -0.21413,-0.17992 -0.47454,-0.26988 -0.78125,-0.26988 -0.30672,0 -0.57003,0.09 -0.78993,0.26988 -0.21412,0.1752 -0.32118,0.38826 -0.32118,0.63921 0,0.17519 0.055,0.33381 0.16493,0.47585 0.10995,0.14205 0.25752,0.25332 0.44271,0.33381 l -0.59896,1.62642 c -0.0289,0.071 -0.0145,0.13731 0.0434,0.19886 0.0579,0.0616 0.1331,0.0923 0.2257,0.0923 l 1.66666,0 c 0.0926,0 0.16782,-0.0308 0.2257,-0.0923 0.0579,-0.0616 0.0723,-0.12784 0.0434,-0.19886 l -0.59896,-1.62642 c 0.18518,-0.0805 0.33275,-0.19176 0.44271,-0.33381 0.10995,-0.14204 0.16492,-0.30066 0.16493,-0.47585 m -3.33332,-1.81819 4.44443,0 0,-1.36363 c 0,-0.50189 -0.21701,-0.93039 -0.65104,-1.28551 -0.43403,-0.35511 -0.95776,-0.53266 -1.57118,-0.53267 -0.61342,10e-6 -1.13715,0.17756 -1.57117,0.53267 -0.43404,0.35512 -0.65104,0.78362 -0.65104,1.28551 l 0,1.36363 m 7.22221,0.68182 0,4.09091 c -10e-6,0.1894 -0.081,0.35038 -0.24306,0.48296 -0.16204,0.13257 -0.3588,0.19886 -0.59027,0.19886 l -8.33334,0 c -0.23148,0 -0.42824,-0.0663 -0.59027,-0.19886 -0.16204,-0.13258 -0.24306,-0.29356 -0.24306,-0.48296 l 0,-4.09091 c 0,-0.18939 0.081,-0.35037 0.24306,-0.48295 0.16203,-0.13257 0.35879,-0.19886 0.59027,-0.19887 l 0.27778,0 0,-1.36363 c 0,-0.87121 0.38194,-1.61931 1.14583,-2.24432 0.76389,-0.62499 1.67824,-0.93749 2.74306,-0.9375 1.06481,10e-6 1.97917,0.31251 2.74307,0.9375 0.76388,0.62501 1.14581,1.37311 1.14583,2.24432 l 0,1.36363 0.27778,0 c 0.23147,10e-6 0.42823,0.0663 0.59027,0.19887 0.16203,0.13258 0.24305,0.29356 0.24306,0.48295"
           id="path3029"
           inkscape:connector-curvature="0" />
        <path
           d="m 128.28098,591.03397 0,-5.45455 c -0.11906,0.17046 -0.2474,0.32671 -0.38505,0.46875 -0.99703,0.97538 -1.78944,1.77557 -2.37723,2.40057 -0.18974,0.2036 -0.34413,0.36222 -0.46317,0.47585 -0.11905,0.11364 -0.28088,0.22964 -0.48549,0.34801 -0.2009,0.11365 -0.39063,0.17047 -0.56919,0.17047 l -0.006,0 -0.006,0 c -0.17857,0 -0.37017,-0.0568 -0.57477,-0.17047 -0.2009,-0.11837 -0.36087,-0.23437 -0.47991,-0.34801 -0.11906,-0.11363 -0.27344,-0.27225 -0.46317,-0.47585 -0.5878,-0.625 -1.38021,-1.42519 -2.37724,-2.40057 -0.13765,-0.14204 -0.26599,-0.29829 -0.38504,-0.46875 l 0,5.45455 c 0,0.0616 0.0167,0.116 0.0502,0.16335 0.0372,0.0426 0.08,0.0639 0.12835,0.0639 l 8.21429,0 c 0.0484,0 0.0893,-0.0213 0.12277,-0.0639 0.0372,-0.0474 0.0558,-0.1018 0.0558,-0.16335 m 0,-7.46449 c -1e-5,-0.009 -1e-5,-0.0355 0,-0.0781 -1e-5,-0.0426 -1e-5,-0.0734 0,-0.0923 -1e-5,-0.0237 -0.002,-0.0544 -0.006,-0.0923 -2e-5,-0.0426 -0.006,-0.0734 -0.0167,-0.0923 -0.007,-0.0189 -0.0168,-0.0402 -0.0279,-0.0639 -0.0112,-0.0237 -0.0279,-0.0402 -0.0502,-0.0497 -0.0223,-0.0142 -0.0484,-0.0213 -0.0781,-0.0213 l -8.21428,0 c -0.0484,1e-5 -0.0912,0.0237 -0.12835,0.071 -0.0335,0.0426 -0.0502,0.0947 -0.0502,0.15625 0,0.79547 0.27343,1.46781 0.82031,2.01706 0.718,0.71969 1.46391,1.47017 2.23772,2.25142 0.0223,0.0237 0.0874,0.0947 0.19532,0.21307 0.10788,0.11364 0.19345,0.20123 0.25669,0.26278 0.0632,0.0616 0.14509,0.13732 0.24555,0.22728 0.10416,0.0852 0.19902,0.14915 0.28459,0.19176 0.0856,0.0426 0.16555,0.0639 0.23996,0.0639 l 0.006,0 0.006,0 c 0.0744,0 0.15438,-0.0213 0.23996,-0.0639 0.0856,-0.0426 0.17856,-0.10653 0.27902,-0.19176 0.10415,-0.09 0.18786,-0.16572 0.25111,-0.22728 0.0632,-0.0615 0.1488,-0.14914 0.2567,-0.26278 0.10787,-0.11837 0.17298,-0.18939 0.19531,-0.21307 0.7738,-0.78125 1.51971,-1.53172 2.23772,-2.25142 0.20088,-0.20359 0.3869,-0.47586 0.55803,-0.81677 0.17485,-0.34564 0.26228,-0.65814 0.26228,-0.9375 m 0.71429,-0.26279 0,7.72728 c -1e-5,0.3125 -0.0874,0.58002 -0.26228,0.80255 -0.17486,0.22254 -0.38505,0.33381 -0.63058,0.33381 l -8.21428,0 c -0.24554,0 -0.45573,-0.11127 -0.63058,-0.33381 -0.17485,-0.22253 -0.26229,-0.49005 -0.26229,-0.80255 l 0,-7.72728 c 0,-0.31249 0.0874,-0.58001 0.26229,-0.80255 0.17484,-0.22253 0.38504,-0.3338 0.63058,-0.33381 l 8.21428,0 c 0.24553,10e-6 0.45572,0.11128 0.63058,0.33381 0.17484,0.22254 0.26227,0.49006 0.26228,0.80255"
           id="path3031"
           inkscape:connector-curvature="0" />
        <path
           d="m 109.99495,591.33714 8,0 0,-5 -3.25,0 c -0.20834,0 -0.38542,-0.0608 -0.53125,-0.1823 -0.14584,-0.12152 -0.21876,-0.26909 -0.21875,-0.4427 l 0,-2.70834 -4,0 0,8.33334 m 5,-5.83334 2.33593,0 -2.33593,-1.94661 0,1.94661 m 4,0.83334 0,5.20833 c -1e-5,0.17361 -0.0729,0.32118 -0.21875,0.44271 -0.14584,0.12153 -0.32293,0.18229 -0.53125,0.18229 l -8.5,0 c -0.20833,0 -0.38542,-0.0608 -0.53125,-0.18229 -0.14584,-0.12153 -0.21875,-0.2691 -0.21875,-0.44271 l 0,-8.75 c 0,-0.1736 0.0729,-0.32117 0.21875,-0.44271 0.14583,-0.12152 0.32292,-0.18228 0.53125,-0.18229 l 4.25,0 c 0.20832,10e-6 0.4375,0.0434 0.6875,0.13021 0.25,0.0868 0.44791,0.19098 0.59375,0.3125 l 3.1875,2.65625 c 0.14582,0.12153 0.27082,0.28646 0.375,0.49479 0.10415,0.20834 0.15624,0.39931 0.15625,0.57292"
           id="path3033"
           inkscape:connector-curvature="0" />
      </g>
    </g>
    <flowRoot
       xml:space="preserve"
       id="flowRoot3008"
       style="font-size:40px;font-style:normal;font-variant:normal;font-weight:normal;font-stretch:normal;line-height:125%;letter-spacing:0px;word-spacing:0px;fill:#000000;fill-opacity:1;stroke:none;font-family:FontAwesome;-inkscape-font-specification:FontAwesome"><flowRegion
         id="flowRegion3010"><rect
           id="rect3012"
           width="350.52292"
           height="175.76654"
           x="126.26907"
           y="253.33151" /></flowRegion><flowPara
         id="flowPara3014"></flowPara></flowRoot>  </g>
</svg>
